<mxfile host="app.diagrams.net" modified="2020-10-08T07:54:34.955Z" agent="5.0 (Windows NT 10.0; Win64; x64) AppleWebKit/537.36 (KHTML, like Gecko) Chrome/85.0.4183.121 Safari/537.36 Edg/85.0.564.70" etag="fvYiyDQ_InyKCFX8Z9yr" version="13.7.8" type="github">
  <diagram id="d1Li9mynmJlndvb8KCYm" name="Page-1">
    <mxGraphModel dx="1523" dy="845" grid="1" gridSize="10" guides="1" tooltips="1" connect="1" arrows="1" fold="1" page="1" pageScale="1" pageWidth="827" pageHeight="1169" math="0" shadow="0">
      <root>
        <mxCell id="0" />
        <mxCell id="1" parent="0" />
        <mxCell id="c8DdGhk2pKbZ2vxhaWM--3" style="edgeStyle=orthogonalEdgeStyle;rounded=0;orthogonalLoop=1;jettySize=auto;html=1;entryX=0.466;entryY=-0.031;entryDx=0;entryDy=0;entryPerimeter=0;" parent="1" source="c8DdGhk2pKbZ2vxhaWM--1" edge="1">
          <mxGeometry relative="1" as="geometry">
            <mxPoint x="291.17999999999984" y="257.8299999999999" as="targetPoint" />
          </mxGeometry>
        </mxCell>
        <mxCell id="c8DdGhk2pKbZ2vxhaWM--1" value="INÍCIO" style="ellipse;whiteSpace=wrap;html=1;" parent="1" vertex="1">
          <mxGeometry x="230" y="130" width="120" height="80" as="geometry" />
        </mxCell>
        <mxCell id="c8DdGhk2pKbZ2vxhaWM--7" style="edgeStyle=orthogonalEdgeStyle;rounded=0;orthogonalLoop=1;jettySize=auto;html=1;" parent="1" source="c8DdGhk2pKbZ2vxhaWM--4" edge="1">
          <mxGeometry relative="1" as="geometry">
            <mxPoint x="295" y="400" as="targetPoint" />
            <Array as="points">
              <mxPoint x="295" y="375" />
            </Array>
          </mxGeometry>
        </mxCell>
        <mxCell id="c8DdGhk2pKbZ2vxhaWM--4" value="&lt;span style=&quot;font-size: 14px&quot;&gt;valor_alcool temperatura_externa&lt;/span&gt;" style="shape=internalStorage;whiteSpace=wrap;html=1;backgroundOutline=1;" parent="1" vertex="1">
          <mxGeometry x="110" y="260" width="370" height="80" as="geometry" />
        </mxCell>
        <mxCell id="c8DdGhk2pKbZ2vxhaWM--9" style="edgeStyle=orthogonalEdgeStyle;rounded=0;orthogonalLoop=1;jettySize=auto;html=1;entryX=0.546;entryY=0.174;entryDx=0;entryDy=0;entryPerimeter=0;" parent="1" source="c8DdGhk2pKbZ2vxhaWM--6" target="c8DdGhk2pKbZ2vxhaWM--8" edge="1">
          <mxGeometry relative="1" as="geometry" />
        </mxCell>
        <mxCell id="c8DdGhk2pKbZ2vxhaWM--6" value="&lt;div&gt;&lt;div&gt;&lt;br&gt;&lt;/div&gt;&lt;div&gt;&lt;br&gt;&lt;/div&gt;&lt;div&gt;&lt;br&gt;&lt;/div&gt;&lt;div&gt;valor_alcool&amp;nbsp;&lt;/div&gt;&lt;div&gt;&lt;br&gt;&lt;/div&gt;&lt;div&gt;&lt;br&gt;&lt;/div&gt;&lt;/div&gt;" style="html=1;strokeWidth=2;shape=manualInput;whiteSpace=wrap;rounded=1;size=26;arcSize=11;" parent="1" vertex="1">
          <mxGeometry x="250" y="390" width="100" height="60" as="geometry" />
        </mxCell>
        <mxCell id="c8DdGhk2pKbZ2vxhaWM--12" style="edgeStyle=orthogonalEdgeStyle;rounded=0;orthogonalLoop=1;jettySize=auto;html=1;entryX=0.5;entryY=0;entryDx=0;entryDy=0;" parent="1" source="c8DdGhk2pKbZ2vxhaWM--8" target="h8jOfnXP8ecwy2N5j1Rt-2" edge="1">
          <mxGeometry relative="1" as="geometry">
            <mxPoint x="295" y="640" as="targetPoint" />
          </mxGeometry>
        </mxCell>
        <mxCell id="c8DdGhk2pKbZ2vxhaWM--8" value="&lt;div&gt;&lt;br&gt;&lt;/div&gt;&lt;div&gt;temperatura_externa&lt;/div&gt;" style="html=1;strokeWidth=2;shape=manualInput;whiteSpace=wrap;rounded=1;size=26;arcSize=11;" parent="1" vertex="1">
          <mxGeometry x="227.5" y="490" width="135" height="60" as="geometry" />
        </mxCell>
        <mxCell id="c8DdGhk2pKbZ2vxhaWM--16" style="edgeStyle=orthogonalEdgeStyle;rounded=0;orthogonalLoop=1;jettySize=auto;html=1;entryX=0.5;entryY=0;entryDx=0;entryDy=0;" parent="1" source="c8DdGhk2pKbZ2vxhaWM--13" target="c8DdGhk2pKbZ2vxhaWM--15" edge="1">
          <mxGeometry relative="1" as="geometry" />
        </mxCell>
        <mxCell id="c8DdGhk2pKbZ2vxhaWM--13" value="USAR O COMBUSTIVEL DO TANQUINHO" style="shape=document;whiteSpace=wrap;html=1;boundedLbl=1;" parent="1" vertex="1">
          <mxGeometry x="90" y="1040" width="120" height="80" as="geometry" />
        </mxCell>
        <mxCell id="c8DdGhk2pKbZ2vxhaWM--15" value="FiM" style="ellipse;whiteSpace=wrap;html=1;" parent="1" vertex="1">
          <mxGeometry x="340" y="1080" width="120" height="80" as="geometry" />
        </mxCell>
        <mxCell id="c8DdGhk2pKbZ2vxhaWM--17" value="1" style="ellipse;shape=doubleEllipse;whiteSpace=wrap;html=1;aspect=fixed;" parent="1" vertex="1">
          <mxGeometry x="374" y="380" width="80" height="80" as="geometry" />
        </mxCell>
        <mxCell id="c8DdGhk2pKbZ2vxhaWM--18" value="2" style="ellipse;shape=doubleEllipse;whiteSpace=wrap;html=1;aspect=fixed;" parent="1" vertex="1">
          <mxGeometry x="374" y="480" width="80" height="80" as="geometry" />
        </mxCell>
        <mxCell id="c8DdGhk2pKbZ2vxhaWM--19" value="3" style="ellipse;shape=doubleEllipse;whiteSpace=wrap;html=1;aspect=fixed;" parent="1" vertex="1">
          <mxGeometry x="362.5" y="600" width="80" height="80" as="geometry" />
        </mxCell>
        <mxCell id="c8DdGhk2pKbZ2vxhaWM--20" value="4" style="ellipse;shape=doubleEllipse;whiteSpace=wrap;html=1;aspect=fixed;" parent="1" vertex="1">
          <mxGeometry x="150" y="770" width="80" height="80" as="geometry" />
        </mxCell>
        <mxCell id="c8DdGhk2pKbZ2vxhaWM--50" value="" style="shape=table;html=1;whiteSpace=wrap;startSize=0;container=1;collapsible=0;childLayout=tableLayout;" parent="1" vertex="1">
          <mxGeometry x="640" y="310" width="760" height="420" as="geometry" />
        </mxCell>
        <mxCell id="c8DdGhk2pKbZ2vxhaWM--51" value="" style="shape=partialRectangle;html=1;whiteSpace=wrap;collapsible=0;dropTarget=0;pointerEvents=0;fillColor=none;top=0;left=0;bottom=0;right=0;points=[[0,0.5],[1,0.5]];portConstraint=eastwest;" parent="c8DdGhk2pKbZ2vxhaWM--50" vertex="1">
          <mxGeometry width="760" height="50" as="geometry" />
        </mxCell>
        <mxCell id="c8DdGhk2pKbZ2vxhaWM--52" value="Processo" style="shape=partialRectangle;html=1;whiteSpace=wrap;connectable=0;overflow=hidden;fillColor=none;top=0;left=0;bottom=0;right=0;" parent="c8DdGhk2pKbZ2vxhaWM--51" vertex="1">
          <mxGeometry width="60" height="50" as="geometry" />
        </mxCell>
        <mxCell id="c8DdGhk2pKbZ2vxhaWM--53" value="valor_alcool" style="shape=partialRectangle;html=1;whiteSpace=wrap;connectable=0;overflow=hidden;fillColor=none;top=0;left=0;bottom=0;right=0;" parent="c8DdGhk2pKbZ2vxhaWM--51" vertex="1">
          <mxGeometry x="60" width="90" height="50" as="geometry" />
        </mxCell>
        <mxCell id="c8DdGhk2pKbZ2vxhaWM--54" value="temperatura_externa" style="shape=partialRectangle;html=1;whiteSpace=wrap;connectable=0;overflow=hidden;fillColor=none;top=0;left=0;bottom=0;right=0;" parent="c8DdGhk2pKbZ2vxhaWM--51" vertex="1">
          <mxGeometry x="150" width="130" height="50" as="geometry" />
        </mxCell>
        <mxCell id="c8DdGhk2pKbZ2vxhaWM--55" value="TANQUE PRINCAPAL" style="shape=partialRectangle;html=1;whiteSpace=wrap;connectable=0;overflow=hidden;fillColor=none;top=0;left=0;bottom=0;right=0;" parent="c8DdGhk2pKbZ2vxhaWM--51" vertex="1">
          <mxGeometry x="280" width="160" height="50" as="geometry" />
        </mxCell>
        <mxCell id="c8DdGhk2pKbZ2vxhaWM--56" value="&lt;span style=&quot;background-color: rgb(255 , 255 , 254) ; font-family: &amp;#34;consolas&amp;#34; , &amp;#34;courier new&amp;#34; , monospace ; font-size: 14px&quot;&gt;TANQUINHO DE PARTIDA&lt;/span&gt;" style="shape=partialRectangle;html=1;whiteSpace=wrap;connectable=0;overflow=hidden;fillColor=none;top=0;left=0;bottom=0;right=0;" parent="c8DdGhk2pKbZ2vxhaWM--51" vertex="1">
          <mxGeometry x="440" width="150" height="50" as="geometry" />
        </mxCell>
        <mxCell id="h8jOfnXP8ecwy2N5j1Rt-50" value="SAÍDA" style="shape=partialRectangle;html=1;whiteSpace=wrap;connectable=0;overflow=hidden;fillColor=none;top=0;left=0;bottom=0;right=0;" parent="c8DdGhk2pKbZ2vxhaWM--51" vertex="1">
          <mxGeometry x="590" width="170" height="50" as="geometry" />
        </mxCell>
        <mxCell id="c8DdGhk2pKbZ2vxhaWM--57" value="" style="shape=partialRectangle;html=1;whiteSpace=wrap;collapsible=0;dropTarget=0;pointerEvents=0;fillColor=none;top=0;left=0;bottom=0;right=0;points=[[0,0.5],[1,0.5]];portConstraint=eastwest;" parent="c8DdGhk2pKbZ2vxhaWM--50" vertex="1">
          <mxGeometry y="50" width="760" height="50" as="geometry" />
        </mxCell>
        <mxCell id="c8DdGhk2pKbZ2vxhaWM--58" value="1" style="shape=partialRectangle;html=1;whiteSpace=wrap;connectable=0;overflow=hidden;fillColor=none;top=0;left=0;bottom=0;right=0;" parent="c8DdGhk2pKbZ2vxhaWM--57" vertex="1">
          <mxGeometry width="60" height="50" as="geometry" />
        </mxCell>
        <mxCell id="c8DdGhk2pKbZ2vxhaWM--59" value="{40}" style="shape=partialRectangle;html=1;whiteSpace=wrap;connectable=0;overflow=hidden;fillColor=none;top=0;left=0;bottom=0;right=0;" parent="c8DdGhk2pKbZ2vxhaWM--57" vertex="1">
          <mxGeometry x="60" width="90" height="50" as="geometry" />
        </mxCell>
        <mxCell id="c8DdGhk2pKbZ2vxhaWM--60" value="" style="shape=partialRectangle;html=1;whiteSpace=wrap;connectable=0;overflow=hidden;fillColor=none;top=0;left=0;bottom=0;right=0;" parent="c8DdGhk2pKbZ2vxhaWM--57" vertex="1">
          <mxGeometry x="150" width="130" height="50" as="geometry" />
        </mxCell>
        <mxCell id="c8DdGhk2pKbZ2vxhaWM--61" value="" style="shape=partialRectangle;html=1;whiteSpace=wrap;connectable=0;overflow=hidden;fillColor=none;top=0;left=0;bottom=0;right=0;" parent="c8DdGhk2pKbZ2vxhaWM--57" vertex="1">
          <mxGeometry x="280" width="160" height="50" as="geometry" />
        </mxCell>
        <mxCell id="c8DdGhk2pKbZ2vxhaWM--62" value="" style="shape=partialRectangle;html=1;whiteSpace=wrap;connectable=0;overflow=hidden;fillColor=none;top=0;left=0;bottom=0;right=0;" parent="c8DdGhk2pKbZ2vxhaWM--57" vertex="1">
          <mxGeometry x="440" width="150" height="50" as="geometry" />
        </mxCell>
        <mxCell id="h8jOfnXP8ecwy2N5j1Rt-51" style="shape=partialRectangle;html=1;whiteSpace=wrap;connectable=0;overflow=hidden;fillColor=none;top=0;left=0;bottom=0;right=0;" parent="c8DdGhk2pKbZ2vxhaWM--57" vertex="1">
          <mxGeometry x="590" width="170" height="50" as="geometry" />
        </mxCell>
        <mxCell id="c8DdGhk2pKbZ2vxhaWM--63" value="" style="shape=partialRectangle;html=1;whiteSpace=wrap;collapsible=0;dropTarget=0;pointerEvents=0;fillColor=none;top=0;left=0;bottom=0;right=0;points=[[0,0.5],[1,0.5]];portConstraint=eastwest;" parent="c8DdGhk2pKbZ2vxhaWM--50" vertex="1">
          <mxGeometry y="100" width="760" height="50" as="geometry" />
        </mxCell>
        <mxCell id="c8DdGhk2pKbZ2vxhaWM--64" value="2" style="shape=partialRectangle;html=1;whiteSpace=wrap;connectable=0;overflow=hidden;fillColor=none;top=0;left=0;bottom=0;right=0;" parent="c8DdGhk2pKbZ2vxhaWM--63" vertex="1">
          <mxGeometry width="60" height="50" as="geometry" />
        </mxCell>
        <mxCell id="c8DdGhk2pKbZ2vxhaWM--65" value="40" style="shape=partialRectangle;html=1;whiteSpace=wrap;connectable=0;overflow=hidden;fillColor=none;top=0;left=0;bottom=0;right=0;" parent="c8DdGhk2pKbZ2vxhaWM--63" vertex="1">
          <mxGeometry x="60" width="90" height="50" as="geometry" />
        </mxCell>
        <mxCell id="c8DdGhk2pKbZ2vxhaWM--66" value="{22}&amp;nbsp;" style="shape=partialRectangle;html=1;whiteSpace=wrap;connectable=0;overflow=hidden;fillColor=none;top=0;left=0;bottom=0;right=0;" parent="c8DdGhk2pKbZ2vxhaWM--63" vertex="1">
          <mxGeometry x="150" width="130" height="50" as="geometry" />
        </mxCell>
        <mxCell id="c8DdGhk2pKbZ2vxhaWM--67" value="" style="shape=partialRectangle;html=1;whiteSpace=wrap;connectable=0;overflow=hidden;fillColor=none;top=0;left=0;bottom=0;right=0;" parent="c8DdGhk2pKbZ2vxhaWM--63" vertex="1">
          <mxGeometry x="280" width="160" height="50" as="geometry" />
        </mxCell>
        <mxCell id="c8DdGhk2pKbZ2vxhaWM--68" value="" style="shape=partialRectangle;html=1;whiteSpace=wrap;connectable=0;overflow=hidden;fillColor=none;top=0;left=0;bottom=0;right=0;" parent="c8DdGhk2pKbZ2vxhaWM--63" vertex="1">
          <mxGeometry x="440" width="150" height="50" as="geometry" />
        </mxCell>
        <mxCell id="h8jOfnXP8ecwy2N5j1Rt-52" style="shape=partialRectangle;html=1;whiteSpace=wrap;connectable=0;overflow=hidden;fillColor=none;top=0;left=0;bottom=0;right=0;" parent="c8DdGhk2pKbZ2vxhaWM--63" vertex="1">
          <mxGeometry x="590" width="170" height="50" as="geometry" />
        </mxCell>
        <mxCell id="c8DdGhk2pKbZ2vxhaWM--69" value="" style="shape=partialRectangle;html=1;whiteSpace=wrap;collapsible=0;dropTarget=0;pointerEvents=0;fillColor=none;top=0;left=0;bottom=0;right=0;points=[[0,0.5],[1,0.5]];portConstraint=eastwest;" parent="c8DdGhk2pKbZ2vxhaWM--50" vertex="1">
          <mxGeometry y="150" width="760" height="80" as="geometry" />
        </mxCell>
        <mxCell id="c8DdGhk2pKbZ2vxhaWM--70" value="3" style="shape=partialRectangle;html=1;whiteSpace=wrap;connectable=0;overflow=hidden;fillColor=none;top=0;left=0;bottom=0;right=0;" parent="c8DdGhk2pKbZ2vxhaWM--69" vertex="1">
          <mxGeometry width="60" height="80" as="geometry" />
        </mxCell>
        <mxCell id="c8DdGhk2pKbZ2vxhaWM--71" value="40" style="shape=partialRectangle;html=1;whiteSpace=wrap;connectable=0;overflow=hidden;fillColor=none;top=0;left=0;bottom=0;right=0;" parent="c8DdGhk2pKbZ2vxhaWM--69" vertex="1">
          <mxGeometry x="60" width="90" height="80" as="geometry" />
        </mxCell>
        <mxCell id="c8DdGhk2pKbZ2vxhaWM--72" value="22" style="shape=partialRectangle;html=1;whiteSpace=wrap;connectable=0;overflow=hidden;fillColor=none;top=0;left=0;bottom=0;right=0;" parent="c8DdGhk2pKbZ2vxhaWM--69" vertex="1">
          <mxGeometry x="150" width="130" height="80" as="geometry" />
        </mxCell>
        <mxCell id="c8DdGhk2pKbZ2vxhaWM--73" value="temperatura_externa &amp;gt;15&lt;br&gt;&lt;font&gt;ou&lt;br&gt;&lt;font&gt;valor_alcool &amp;lt;50&lt;/font&gt; &lt;/font&gt;" style="shape=partialRectangle;html=1;whiteSpace=wrap;connectable=0;overflow=hidden;fillColor=none;top=0;left=0;bottom=0;right=0;" parent="c8DdGhk2pKbZ2vxhaWM--69" vertex="1">
          <mxGeometry x="280" width="160" height="80" as="geometry" />
        </mxCell>
        <mxCell id="c8DdGhk2pKbZ2vxhaWM--74" value="" style="shape=partialRectangle;html=1;whiteSpace=wrap;connectable=0;overflow=hidden;fillColor=none;top=0;left=0;bottom=0;right=0;" parent="c8DdGhk2pKbZ2vxhaWM--69" vertex="1">
          <mxGeometry x="440" width="150" height="80" as="geometry" />
        </mxCell>
        <mxCell id="h8jOfnXP8ecwy2N5j1Rt-53" style="shape=partialRectangle;html=1;whiteSpace=wrap;connectable=0;overflow=hidden;fillColor=none;top=0;left=0;bottom=0;right=0;" parent="c8DdGhk2pKbZ2vxhaWM--69" vertex="1">
          <mxGeometry x="590" width="170" height="80" as="geometry" />
        </mxCell>
        <mxCell id="h8jOfnXP8ecwy2N5j1Rt-32" style="shape=partialRectangle;html=1;whiteSpace=wrap;collapsible=0;dropTarget=0;pointerEvents=0;fillColor=none;top=0;left=0;bottom=0;right=0;points=[[0,0.5],[1,0.5]];portConstraint=eastwest;" parent="c8DdGhk2pKbZ2vxhaWM--50" vertex="1">
          <mxGeometry y="230" width="760" height="90" as="geometry" />
        </mxCell>
        <mxCell id="h8jOfnXP8ecwy2N5j1Rt-33" value="4" style="shape=partialRectangle;html=1;whiteSpace=wrap;connectable=0;overflow=hidden;fillColor=none;top=0;left=0;bottom=0;right=0;" parent="h8jOfnXP8ecwy2N5j1Rt-32" vertex="1">
          <mxGeometry width="60" height="90" as="geometry" />
        </mxCell>
        <mxCell id="h8jOfnXP8ecwy2N5j1Rt-34" value="40" style="shape=partialRectangle;html=1;whiteSpace=wrap;connectable=0;overflow=hidden;fillColor=none;top=0;left=0;bottom=0;right=0;" parent="h8jOfnXP8ecwy2N5j1Rt-32" vertex="1">
          <mxGeometry x="60" width="90" height="90" as="geometry" />
        </mxCell>
        <mxCell id="h8jOfnXP8ecwy2N5j1Rt-35" value="22" style="shape=partialRectangle;html=1;whiteSpace=wrap;connectable=0;overflow=hidden;fillColor=none;top=0;left=0;bottom=0;right=0;" parent="h8jOfnXP8ecwy2N5j1Rt-32" vertex="1">
          <mxGeometry x="150" width="130" height="90" as="geometry" />
        </mxCell>
        <mxCell id="h8jOfnXP8ecwy2N5j1Rt-36" style="shape=partialRectangle;html=1;whiteSpace=wrap;connectable=0;overflow=hidden;fillColor=none;top=0;left=0;bottom=0;right=0;" parent="h8jOfnXP8ecwy2N5j1Rt-32" vertex="1">
          <mxGeometry x="280" width="160" height="90" as="geometry" />
        </mxCell>
        <mxCell id="h8jOfnXP8ecwy2N5j1Rt-37" value="&lt;span&gt;temperatura_externa &amp;lt;15&lt;/span&gt;" style="shape=partialRectangle;html=1;whiteSpace=wrap;connectable=0;overflow=hidden;fillColor=none;top=0;left=0;bottom=0;right=0;" parent="h8jOfnXP8ecwy2N5j1Rt-32" vertex="1">
          <mxGeometry x="440" width="150" height="90" as="geometry" />
        </mxCell>
        <mxCell id="h8jOfnXP8ecwy2N5j1Rt-54" style="shape=partialRectangle;html=1;whiteSpace=wrap;connectable=0;overflow=hidden;fillColor=none;top=0;left=0;bottom=0;right=0;" parent="h8jOfnXP8ecwy2N5j1Rt-32" vertex="1">
          <mxGeometry x="590" width="170" height="90" as="geometry" />
        </mxCell>
        <mxCell id="h8jOfnXP8ecwy2N5j1Rt-38" style="shape=partialRectangle;html=1;whiteSpace=wrap;collapsible=0;dropTarget=0;pointerEvents=0;fillColor=none;top=0;left=0;bottom=0;right=0;points=[[0,0.5],[1,0.5]];portConstraint=eastwest;" parent="c8DdGhk2pKbZ2vxhaWM--50" vertex="1">
          <mxGeometry y="320" width="760" height="50" as="geometry" />
        </mxCell>
        <mxCell id="h8jOfnXP8ecwy2N5j1Rt-39" value="5" style="shape=partialRectangle;html=1;whiteSpace=wrap;connectable=0;overflow=hidden;fillColor=none;top=0;left=0;bottom=0;right=0;" parent="h8jOfnXP8ecwy2N5j1Rt-38" vertex="1">
          <mxGeometry width="60" height="50" as="geometry" />
        </mxCell>
        <mxCell id="h8jOfnXP8ecwy2N5j1Rt-40" value="40" style="shape=partialRectangle;html=1;whiteSpace=wrap;connectable=0;overflow=hidden;fillColor=none;top=0;left=0;bottom=0;right=0;" parent="h8jOfnXP8ecwy2N5j1Rt-38" vertex="1">
          <mxGeometry x="60" width="90" height="50" as="geometry" />
        </mxCell>
        <mxCell id="h8jOfnXP8ecwy2N5j1Rt-41" value="22" style="shape=partialRectangle;html=1;whiteSpace=wrap;connectable=0;overflow=hidden;fillColor=none;top=0;left=0;bottom=0;right=0;" parent="h8jOfnXP8ecwy2N5j1Rt-38" vertex="1">
          <mxGeometry x="150" width="130" height="50" as="geometry" />
        </mxCell>
        <mxCell id="h8jOfnXP8ecwy2N5j1Rt-42" style="shape=partialRectangle;html=1;whiteSpace=wrap;connectable=0;overflow=hidden;fillColor=none;top=0;left=0;bottom=0;right=0;" parent="h8jOfnXP8ecwy2N5j1Rt-38" vertex="1">
          <mxGeometry x="280" width="160" height="50" as="geometry" />
        </mxCell>
        <mxCell id="h8jOfnXP8ecwy2N5j1Rt-43" value="&lt;span&gt;valor_alcool &amp;gt;50&lt;/span&gt;" style="shape=partialRectangle;html=1;whiteSpace=wrap;connectable=0;overflow=hidden;fillColor=none;top=0;left=0;bottom=0;right=0;" parent="h8jOfnXP8ecwy2N5j1Rt-38" vertex="1">
          <mxGeometry x="440" width="150" height="50" as="geometry" />
        </mxCell>
        <mxCell id="h8jOfnXP8ecwy2N5j1Rt-55" style="shape=partialRectangle;html=1;whiteSpace=wrap;connectable=0;overflow=hidden;fillColor=none;top=0;left=0;bottom=0;right=0;" parent="h8jOfnXP8ecwy2N5j1Rt-38" vertex="1">
          <mxGeometry x="590" width="170" height="50" as="geometry" />
        </mxCell>
        <mxCell id="h8jOfnXP8ecwy2N5j1Rt-44" style="shape=partialRectangle;html=1;whiteSpace=wrap;collapsible=0;dropTarget=0;pointerEvents=0;fillColor=none;top=0;left=0;bottom=0;right=0;points=[[0,0.5],[1,0.5]];portConstraint=eastwest;" parent="c8DdGhk2pKbZ2vxhaWM--50" vertex="1">
          <mxGeometry y="370" width="760" height="50" as="geometry" />
        </mxCell>
        <mxCell id="h8jOfnXP8ecwy2N5j1Rt-45" value="6" style="shape=partialRectangle;html=1;whiteSpace=wrap;connectable=0;overflow=hidden;fillColor=none;top=0;left=0;bottom=0;right=0;" parent="h8jOfnXP8ecwy2N5j1Rt-44" vertex="1">
          <mxGeometry width="60" height="50" as="geometry" />
        </mxCell>
        <mxCell id="h8jOfnXP8ecwy2N5j1Rt-46" style="shape=partialRectangle;html=1;whiteSpace=wrap;connectable=0;overflow=hidden;fillColor=none;top=0;left=0;bottom=0;right=0;" parent="h8jOfnXP8ecwy2N5j1Rt-44" vertex="1">
          <mxGeometry x="60" width="90" height="50" as="geometry" />
        </mxCell>
        <mxCell id="h8jOfnXP8ecwy2N5j1Rt-47" style="shape=partialRectangle;html=1;whiteSpace=wrap;connectable=0;overflow=hidden;fillColor=none;top=0;left=0;bottom=0;right=0;" parent="h8jOfnXP8ecwy2N5j1Rt-44" vertex="1">
          <mxGeometry x="150" width="130" height="50" as="geometry" />
        </mxCell>
        <mxCell id="h8jOfnXP8ecwy2N5j1Rt-48" style="shape=partialRectangle;html=1;whiteSpace=wrap;connectable=0;overflow=hidden;fillColor=none;top=0;left=0;bottom=0;right=0;" parent="h8jOfnXP8ecwy2N5j1Rt-44" vertex="1">
          <mxGeometry x="280" width="160" height="50" as="geometry" />
        </mxCell>
        <mxCell id="h8jOfnXP8ecwy2N5j1Rt-49" style="shape=partialRectangle;html=1;whiteSpace=wrap;connectable=0;overflow=hidden;fillColor=none;top=0;left=0;bottom=0;right=0;" parent="h8jOfnXP8ecwy2N5j1Rt-44" vertex="1">
          <mxGeometry x="440" width="150" height="50" as="geometry" />
        </mxCell>
        <mxCell id="h8jOfnXP8ecwy2N5j1Rt-56" value="TANQUE PRINCAPAL" style="shape=partialRectangle;html=1;whiteSpace=wrap;connectable=0;overflow=hidden;fillColor=none;top=0;left=0;bottom=0;right=0;" parent="h8jOfnXP8ecwy2N5j1Rt-44" vertex="1">
          <mxGeometry x="590" width="170" height="50" as="geometry" />
        </mxCell>
        <mxCell id="c8DdGhk2pKbZ2vxhaWM--83" value="&lt;font style=&quot;font-size: 18px&quot;&gt;&amp;nbsp;TESTE DE MESA&lt;/font&gt;" style="text;html=1;align=center;verticalAlign=middle;resizable=0;points=[];autosize=1;fillColor=#e51400;strokeColor=#B20000;fontColor=#ffffff;" parent="1" vertex="1">
          <mxGeometry x="930" y="280" width="160" height="20" as="geometry" />
        </mxCell>
        <mxCell id="h8jOfnXP8ecwy2N5j1Rt-1" value="Text" style="text;html=1;align=center;verticalAlign=middle;resizable=0;points=[];autosize=1;" parent="1" vertex="1">
          <mxGeometry x="190" y="140" width="40" height="20" as="geometry" />
        </mxCell>
        <mxCell id="h8jOfnXP8ecwy2N5j1Rt-4" style="edgeStyle=orthogonalEdgeStyle;rounded=0;orthogonalLoop=1;jettySize=auto;html=1;" parent="1" source="h8jOfnXP8ecwy2N5j1Rt-2" edge="1">
          <mxGeometry relative="1" as="geometry">
            <mxPoint x="600" y="940" as="targetPoint" />
            <Array as="points">
              <mxPoint x="600" y="690" />
            </Array>
          </mxGeometry>
        </mxCell>
        <mxCell id="h8jOfnXP8ecwy2N5j1Rt-7" style="edgeStyle=orthogonalEdgeStyle;rounded=0;orthogonalLoop=1;jettySize=auto;html=1;entryX=0.5;entryY=0;entryDx=0;entryDy=0;" parent="1" source="h8jOfnXP8ecwy2N5j1Rt-2" target="h8jOfnXP8ecwy2N5j1Rt-5" edge="1">
          <mxGeometry relative="1" as="geometry">
            <mxPoint x="90" y="660" as="targetPoint" />
            <Array as="points">
              <mxPoint x="115" y="660" />
            </Array>
          </mxGeometry>
        </mxCell>
        <mxCell id="h8jOfnXP8ecwy2N5j1Rt-2" value="&lt;div&gt;&lt;font style=&quot;font-size: 14px&quot;&gt;Valor_alcool &amp;gt;50&lt;/font&gt;&lt;/div&gt;" style="rhombus;whiteSpace=wrap;html=1;" parent="1" vertex="1">
          <mxGeometry x="190" y="650" width="210" height="80" as="geometry" />
        </mxCell>
        <mxCell id="h8jOfnXP8ecwy2N5j1Rt-11" style="edgeStyle=orthogonalEdgeStyle;rounded=0;orthogonalLoop=1;jettySize=auto;html=1;" parent="1" source="h8jOfnXP8ecwy2N5j1Rt-5" target="c8DdGhk2pKbZ2vxhaWM--13" edge="1">
          <mxGeometry relative="1" as="geometry">
            <Array as="points">
              <mxPoint x="115" y="1020" />
              <mxPoint x="115" y="1020" />
            </Array>
          </mxGeometry>
        </mxCell>
        <mxCell id="h8jOfnXP8ecwy2N5j1Rt-17" style="edgeStyle=orthogonalEdgeStyle;rounded=0;orthogonalLoop=1;jettySize=auto;html=1;" parent="1" source="h8jOfnXP8ecwy2N5j1Rt-5" edge="1">
          <mxGeometry relative="1" as="geometry">
            <mxPoint x="600" y="885" as="targetPoint" />
          </mxGeometry>
        </mxCell>
        <mxCell id="h8jOfnXP8ecwy2N5j1Rt-5" value="&lt;div&gt;&lt;span&gt;&lt;font style=&quot;font-size: 14px&quot;&gt;temperatura_externa&amp;lt;15&lt;/font&gt;&lt;/span&gt;&lt;br&gt;&lt;/div&gt;" style="rhombus;whiteSpace=wrap;html=1;" parent="1" vertex="1">
          <mxGeometry x="20" y="810" width="190" height="150" as="geometry" />
        </mxCell>
        <mxCell id="h8jOfnXP8ecwy2N5j1Rt-8" value="&lt;font style=&quot;font-size: 14px&quot;&gt;SIM&lt;/font&gt;" style="text;html=1;align=center;verticalAlign=middle;resizable=0;points=[];autosize=1;" parent="1" vertex="1">
          <mxGeometry x="140" y="660" width="40" height="20" as="geometry" />
        </mxCell>
        <mxCell id="h8jOfnXP8ecwy2N5j1Rt-9" value="NÃO" style="text;html=1;align=center;verticalAlign=middle;resizable=0;points=[];autosize=1;" parent="1" vertex="1">
          <mxGeometry x="530" y="650" width="40" height="20" as="geometry" />
        </mxCell>
        <mxCell id="h8jOfnXP8ecwy2N5j1Rt-14" style="edgeStyle=orthogonalEdgeStyle;rounded=0;orthogonalLoop=1;jettySize=auto;html=1;" parent="1" source="h8jOfnXP8ecwy2N5j1Rt-13" edge="1">
          <mxGeometry relative="1" as="geometry">
            <mxPoint x="400" y="1070" as="targetPoint" />
          </mxGeometry>
        </mxCell>
        <mxCell id="h8jOfnXP8ecwy2N5j1Rt-13" value="USAR APENAS COMBUSTIVEL DO TANQUE PRINCAPALEUA" style="shape=document;whiteSpace=wrap;html=1;boundedLbl=1;" parent="1" vertex="1">
          <mxGeometry x="550" y="940" width="120" height="80" as="geometry" />
        </mxCell>
        <mxCell id="h8jOfnXP8ecwy2N5j1Rt-16" value="SIM" style="text;html=1;align=center;verticalAlign=middle;resizable=0;points=[];autosize=1;" parent="1" vertex="1">
          <mxGeometry x="110" y="990" width="40" height="20" as="geometry" />
        </mxCell>
        <mxCell id="h8jOfnXP8ecwy2N5j1Rt-18" value="NÃO" style="text;html=1;align=center;verticalAlign=middle;resizable=0;points=[];autosize=1;" parent="1" vertex="1">
          <mxGeometry x="250" y="850" width="40" height="20" as="geometry" />
        </mxCell>
        <mxCell id="h8jOfnXP8ecwy2N5j1Rt-20" value="5" style="ellipse;shape=doubleEllipse;whiteSpace=wrap;html=1;aspect=fixed;" parent="1" vertex="1">
          <mxGeometry x="200" y="970" width="80" height="80" as="geometry" />
        </mxCell>
        <mxCell id="h8jOfnXP8ecwy2N5j1Rt-21" value="6" style="ellipse;shape=doubleEllipse;whiteSpace=wrap;html=1;aspect=fixed;" parent="1" vertex="1">
          <mxGeometry x="700" y="940" width="80" height="80" as="geometry" />
        </mxCell>
      </root>
    </mxGraphModel>
  </diagram>
</mxfile>
